<svg width="30" height="30" viewBox="0 0 30 30" fill="none" xmlns="http://www.w3.org/2000/svg">
<path d="M13.7127 0.584961C14.5317 0.584961 15.3506 0.584961 16.1695 0.584961C17.0879 0.701952 18.0063 0.848191 18.9013 1.10557C25.9851 3.12952 30.4483 10.2952 28.9859 17.5253C27.8745 23.0297 24.5344 26.674 19.2289 28.5166C18.872 28.6395 18.8428 28.6161 18.8428 28.2475C18.8428 24.9484 18.8428 21.6492 18.8369 18.3501C18.8369 18.0751 18.9247 17.9699 19.2055 17.9757C20.0069 17.9874 20.8024 17.9699 21.6038 17.9874C21.8495 17.9933 21.9489 17.9055 21.9782 17.6598C22.0893 16.7122 22.2121 15.7646 22.3467 14.8169C22.3876 14.542 22.2882 14.4835 22.0367 14.4894C21.0773 14.5011 20.1239 14.4894 19.1645 14.4952C18.9481 14.4952 18.8311 14.4367 18.8369 14.1969C18.8545 13.3896 18.796 12.5824 18.8779 11.7752C18.9598 10.9562 19.3693 10.5409 20.1823 10.4415C20.8609 10.3596 21.5394 10.4122 22.218 10.4005C22.411 10.3947 22.5105 10.3362 22.5105 10.1256C22.5046 9.25986 22.5046 8.39412 22.5105 7.53424C22.5105 7.34705 22.4227 7.26516 22.2472 7.25346C21.3581 7.20081 20.469 7.11307 19.574 7.14817C18.6205 7.18327 17.7138 7.40555 16.93 7.98466C15.7776 8.83869 15.3155 10.0437 15.2512 11.4183C15.2102 12.325 15.2336 13.2376 15.2395 14.1501C15.2395 14.4192 15.1459 14.5069 14.8826 14.5011C14.1047 14.4894 13.3208 14.4952 12.5428 14.4952C12.1918 14.4952 12.1743 14.5069 12.1743 14.852C12.1743 15.7704 12.1743 16.6947 12.1743 17.613C12.1743 17.9699 12.1918 17.9874 12.5604 17.9874C13.3384 17.9874 14.1222 17.9933 14.9002 17.9874C15.1517 17.9874 15.2453 18.0751 15.2453 18.3325C15.2395 21.8364 15.2395 25.3403 15.2453 28.8442C15.2453 29.0957 15.1576 29.1776 14.9002 29.1835C14.052 29.1893 13.2097 29.1308 12.379 28.9553C6.64646 27.7211 2.90859 24.2932 1.15373 18.701C0.890496 17.8587 0.779355 16.9813 0.668213 16.1038C0.668213 15.2849 0.668213 14.466 0.668213 13.647C0.738408 13.1908 0.779355 12.7228 0.878797 12.2724C2.11305 6.54566 5.5409 2.81949 11.1155 1.07632C11.9579 0.807244 12.8411 0.701952 13.7127 0.584961Z" fill="#E6E7E8"/>
</svg>
