<svg width="29" height="29" viewBox="0 0 29 29" fill="none" xmlns="http://www.w3.org/2000/svg">
<path d="M28.7638 13.2237C28.7638 14.0075 28.7638 14.7914 28.7638 15.5752C28.6937 16.0666 28.6586 16.558 28.5474 17.0376C27.2839 22.7643 23.8502 26.5022 18.258 28.2512C17.3923 28.5203 16.4915 28.6373 15.5965 28.7426C14.8126 28.7426 14.0288 28.7426 13.245 28.7426C12.6191 28.6607 11.9873 28.5847 11.3673 28.4501C4.26589 26.9117 -0.805681 20.1613 0.159496 12.5803C0.557266 9.45659 1.82662 6.72484 4.02606 4.48446C7.71128 0.734894 12.2154 -0.745045 17.3455 0.354672C22.9728 1.55968 26.5937 5.10452 28.2842 10.609C28.5474 11.463 28.6586 12.3463 28.7638 13.2237ZM24.1485 14.3936C24.1485 13.2354 24.1602 12.0772 24.1427 10.919C24.131 10.3165 24.1017 9.70812 23.9789 9.11146C23.546 6.95298 22.3001 5.53738 20.1591 4.94658C19.4162 4.74184 18.65 4.6892 17.8837 4.68335C16.2399 4.65995 14.5962 4.65995 12.9525 4.6658C11.6831 4.67165 10.4079 4.61315 9.15612 4.84713C7.02688 5.2449 5.61129 6.46161 4.98538 8.55576C4.75725 9.32205 4.7046 10.1176 4.69291 10.9073C4.65196 13.2413 4.65196 15.5752 4.69291 17.9092C4.7046 18.5059 4.7397 19.1025 4.85669 19.6933C5.21937 21.5769 6.24304 22.9281 8.03885 23.6535C8.96309 24.0278 9.94581 24.1097 10.9227 24.1214C12.6776 24.1507 14.4324 24.1448 16.1873 24.139C17.3631 24.139 18.5447 24.1799 19.7029 23.9518C21.8672 23.5365 23.277 22.2788 23.8678 20.1379C24.0725 19.4008 24.1193 18.6462 24.131 17.8917C24.1661 16.7276 24.1485 15.5635 24.1485 14.3936Z" fill="#E6E7E8"/>
<path d="M22.4873 14.4287C22.4931 15.8677 22.499 17.3067 22.3878 18.7398C22.3176 19.6816 22.0719 20.5532 21.3934 21.2668C20.6798 22.0214 19.7672 22.3081 18.7728 22.3724C16.0703 22.5362 13.362 22.4894 10.6536 22.4192C10.1681 22.4075 9.68258 22.3549 9.20876 22.2437C7.68788 21.8869 6.7227 20.8106 6.49457 19.2253C6.33663 18.1607 6.37173 17.0844 6.34833 16.0139C6.31323 14.2766 6.33078 12.5393 6.38928 10.802C6.40683 10.3106 6.44192 9.8134 6.54137 9.32788C6.88064 7.71925 7.95696 6.70728 9.59484 6.485C10.8642 6.31536 12.1452 6.35046 13.4263 6.33291C14.9472 6.30951 16.4681 6.33291 17.989 6.37971C18.492 6.39725 18.9951 6.43235 19.4923 6.53764C21.1009 6.87692 22.1012 7.95909 22.3352 9.59696C22.4873 10.6733 22.4405 11.7613 22.4814 12.8376C22.5048 13.3641 22.4873 13.8964 22.4873 14.4287ZM19.3987 14.4053C19.3987 11.6268 17.1993 9.42733 14.4266 9.42148C11.648 9.41563 9.44275 11.6092 9.4369 14.3878C9.43105 17.178 11.6363 19.3891 14.4266 19.3833C17.1993 19.3833 19.3987 17.178 19.3987 14.4053ZM19.6385 10.2989C20.282 10.2989 20.7792 9.80755 20.785 9.1758C20.785 8.54989 20.2761 8.03513 19.6502 8.02928C19.0126 8.02343 18.5213 8.52065 18.5154 9.1641C18.5154 9.81925 18.9892 10.2989 19.6385 10.2989Z" fill="#E6E7E8"/>
<path d="M17.7199 14.3997C17.7199 16.1955 16.2165 17.7047 14.4149 17.7047C12.6191 17.7106 11.1099 16.2014 11.1099 14.3997C11.104 12.6039 12.6132 11.0947 14.4149 11.0947C16.2165 11.0947 17.7199 12.5981 17.7199 14.3997Z" fill="#E6E7E8"/>
</svg>
