<svg viewBox="0 0 247 83" fill="none" xmlns="http://www.w3.org/2000/svg">
<path d="M2.3919 0.539062H0V36.7763H2.3919V0.539062Z" fill="white"/>
<path d="M13.4842 5.86105L43.9061 37.7032V0.539074H41.5142V31.9925L11.0923 0.150391V36.7763H13.4842V5.86105Z" fill="white"/>
<path d="M68.8716 19.7791C67.0328 18.4785 65.2389 17.716 61.6511 15.967C58.0034 14.173 55.2976 12.8724 55.2976 8.95572C55.2976 5.30807 57.7493 2.21356 62.0397 2.21356C63.0114 2.21356 66.9282 2.3182 69.1556 6.66846L70.8897 5.20343C69.036 1.78002 65.7322 0.0458984 62.0846 0.0458984C55.6265 0.0458984 52.801 4.87454 52.801 9.06036C52.801 10.4656 53.1299 11.826 53.9372 13.1864C55.1929 15.2494 56.9868 16.2361 60.5597 17.9702C63.5496 19.4352 65.6724 20.5265 66.7039 21.1245C69.4696 22.8138 70.232 24.8768 70.232 26.8351C70.232 31.6189 66.375 35.2068 61.4866 35.2068C58.9901 35.2068 56.3291 34.1753 54.6996 32.1123C54.1614 31.4545 53.2346 30.0493 52.7412 28.6291L50.6782 29.6008C51.0071 30.5276 51.6051 31.9329 53.0103 33.5624C54.3707 35.147 56.7626 37.3744 61.4268 37.3744C67.6158 37.3744 72.7285 32.8597 72.7285 26.7753C72.7285 22.754 70.4562 20.8554 68.8716 19.7641V19.7791Z" fill="white"/>
<path d="M81.8626 0.539062H79.4707V36.7763H81.8626V0.539062Z" fill="white"/>
<path d="M111.103 31.7234C114.96 27.8665 116.321 22.6492 116.321 18.6876C116.321 14.726 114.96 9.44888 111.103 5.59195C106.544 1.03239 100.938 0.539062 97.7387 0.539062H90.563V36.7763H97.7387C100.953 36.7763 106.544 36.283 111.103 31.7234ZM92.9549 34.6087V2.70672H97.6789C107.187 2.70672 113.824 9.38908 113.824 18.6726C113.824 27.9562 107.246 34.5937 97.6789 34.5937H92.9549V34.6087Z" fill="white"/>
<path d="M140.464 34.6087H125.47V18.0298H140.135V15.8622H125.47V2.70672H140.464V0.539062H123.078V36.7763H140.464V34.6087Z" fill="white"/>
<path d="M12.6771 75.346L2.49654 45.8359H0L12.6771 81.8938L25.0402 45.8359H22.5436L12.6771 75.346Z" fill="white"/>
<path d="M75.1204 45.8359H72.7285V82.0881H85.2262V79.9055H75.1204V45.8359Z" fill="white"/>
<path d="M92.1927 45.8359H89.8008V82.0881H102.298V79.9055H92.1927V45.8359Z" fill="white"/>
<path d="M106.858 82.0881H124.244V79.9055H109.25V63.3416H123.93V61.159H109.25V48.0185H124.244V45.8359H106.858V82.0881Z" fill="white"/>
<path d="M140.015 64.1489L129.581 45.8359H126.875L138.775 66.6006V82.0881H141.167V66.6006L153.38 45.8359H150.674L140.015 64.1489Z" fill="white"/>
<path d="M171.663 62.8483C174.055 61.3833 175.909 58.8269 175.909 54.9102C175.909 49.4836 172.216 45.8359 165.908 45.8359H157.97V82.0732H167.911C174.489 82.0732 179.153 78.2611 179.153 71.9076C179.153 67.2285 176.387 63.5958 171.648 62.8334L171.663 62.8483ZM160.362 48.0185H164.981C166.88 48.0185 169.227 48.1232 171.006 49.5434C172.202 50.5151 173.442 52.309 173.442 55.1942C173.442 57.6908 172.515 59.5445 171.05 60.7404C169.481 62.041 167.956 62.2653 166.102 62.2653H160.347V48.0335L160.362 48.0185ZM174.324 77.7379C171.873 79.9205 168.898 79.9205 166.446 79.9205H160.362V64.4329H166.012C170.034 64.4329 171.828 65.0309 172.799 65.4644C175.52 66.7052 176.656 68.9476 176.656 72.2066C176.656 73.8959 176.283 76.0187 174.324 77.7528V77.7379Z" fill="white"/>
<path d="M181.784 82.0883H184.385L189.214 70.1886H204.642L209.47 82.0883H212.086L197.032 44.7598L181.769 82.0883H181.784ZM190.096 68.006L197.002 50.8292L203.789 68.006H190.096Z" fill="white"/>
<path d="M219.068 45.8359H216.676V82.0881H229.173V79.9055H219.068V45.8359Z" fill="white"/>
<path d="M236.14 79.9055V45.8359H233.748V82.0881H246.246V79.9055H236.14Z" fill="white"/>
<path d="M46.059 45.3872C35.6842 45.3872 27.2378 53.8186 27.2378 64.1935C27.2378 74.5683 35.6842 82.9998 46.059 82.9998C56.4339 82.9998 64.8653 74.5683 64.8653 64.1935C64.8653 53.8186 56.4339 45.3872 46.059 45.3872ZM48.0623 47.8987C49.7216 48.0781 51.2913 48.4967 52.7563 49.1544C52.1584 49.7823 51.4259 50.6643 50.5737 51.8603C49.8412 52.9067 49.1536 53.9831 48.5556 55.0445C47.0158 57.7354 45.9544 60.0525 45.3564 61.9212C45.1621 62.5491 45.0574 63.0125 44.9976 63.3563C44.8033 63.4161 44.5641 63.4909 44.2352 63.5806C43.4728 63.7749 42.1573 63.9992 40.1241 64.1337C40.468 60.1721 41.649 56.5095 43.6223 53.2506C45.2368 50.6195 47.0158 48.8256 48.0473 47.8987H48.0623ZM42.2619 48.2126C43.0991 48.0183 43.9512 47.8987 44.8332 47.8389C43.8465 48.9003 42.7104 50.3055 41.6639 52.0397C39.4514 55.6873 38.1508 59.7834 37.792 64.2234C36.7007 64.2234 35.6543 64.2234 34.6527 64.1486C34.9816 60.4113 36.0579 56.9281 37.8369 53.7887C39.3767 51.1427 41.066 49.3039 42.2619 48.2126ZM37.4034 50.2308C36.8353 51.0082 36.327 51.8005 35.8486 52.6227C33.8903 56.0461 32.7093 59.8432 32.3654 63.9095C31.3339 63.7749 30.5864 63.5955 30.1081 63.446C30.0632 63.446 30.0184 63.4161 29.9586 63.4012C30.1978 57.8699 32.9933 52.9964 37.4034 50.2308ZM30.0034 65.823C30.9901 66.0622 32.0963 66.2565 33.3222 66.3761C35.0264 66.5405 36.8353 66.6153 38.9282 66.5106C41.335 66.4359 43.3532 66.2117 44.9079 65.808C45.3116 65.7034 45.6554 65.5987 45.9394 65.4941C46.0889 65.6286 46.2683 65.808 46.5075 66.0622C47.0307 66.6302 47.8829 67.6468 49.034 69.4108C45.4611 71.0852 41.7536 71.8924 37.9864 71.7579C34.862 71.6682 32.4252 70.9805 31.1097 70.5171C30.5117 69.0072 30.1529 67.4375 30.0034 65.823ZM34.0248 75.271L33.98 75.2261C33.8753 75.1065 33.7707 74.9869 33.6511 74.8524L33.4866 74.658C33.1577 74.2544 32.8588 73.8209 32.5747 73.3874C34.3238 73.8059 36.1327 74.0451 37.8967 74.1049C38.1508 74.1049 38.405 74.1049 38.6591 74.1049C42.6207 74.1049 46.5225 73.193 50.2449 71.3991C50.8129 72.3708 51.3212 73.2827 51.7697 74.1946C48.421 75.7792 44.9378 76.5865 41.335 76.5865C38.2555 76.5865 35.7589 75.9586 34.1593 75.4354C34.1145 75.3756 34.0547 75.3308 34.0099 75.271H34.0248ZM46.0889 80.5182C43.428 80.5182 40.8567 79.9202 38.5844 78.7542C39.5112 78.8588 40.4381 78.9037 41.3948 78.9037C45.2667 78.9037 49.0788 78.0366 52.7264 76.3174C53.16 77.4087 53.3693 78.1412 53.459 78.5299C53.4889 78.6346 53.5038 78.7243 53.5337 78.799C51.2614 79.9352 48.7649 80.5182 46.0889 80.5182ZM58.7361 74.5683L58.4969 74.8524C58.3923 74.9869 58.2876 75.1065 58.168 75.2261C57.8242 75.6148 57.4654 75.9885 57.0917 76.3324C56.5983 76.7809 56.105 77.1845 55.5967 77.5433C55.3725 76.7061 54.9838 75.6148 54.3709 74.2544C53.6234 72.61 52.7414 70.9805 51.68 69.2613C50.3943 67.1535 49.1984 65.509 48.0921 64.3579C47.8081 64.0739 47.554 63.8198 47.2998 63.6105C47.3447 63.3713 47.4344 62.9975 47.5988 62.4743C47.9277 61.4578 48.4509 60.217 49.1237 58.8715C52.3228 61.1737 54.8493 64.044 56.6432 67.4226C58.1381 70.2181 58.766 72.7595 59.0201 74.1647C58.9304 74.2993 58.8258 74.4189 58.7361 74.5385V74.5683ZM60.7094 71.3393C60.6795 71.2197 60.6347 71.1001 60.6048 70.9805C60.1114 69.4108 59.4686 67.8411 58.6763 66.3313C56.6581 62.5341 53.8178 59.3499 50.215 56.8235C50.2897 56.6889 50.3644 56.5693 50.4242 56.4348L50.5588 56.1956C50.9624 55.478 51.396 54.7904 51.8295 54.1326C54.8493 56.2853 57.286 58.9463 59.065 62.0856C60.5599 64.7167 61.2924 67.1535 61.6363 68.7829C61.3971 69.665 61.0831 70.5171 60.7094 71.3393ZM61.0682 60.9495C59.1248 57.541 56.4787 54.611 53.16 52.249C53.8028 51.4118 54.326 50.8437 54.6699 50.4999C54.7446 50.4251 54.8194 50.3504 54.8941 50.2906C59.2444 53.0712 61.9352 57.8101 62.2193 63.2068C61.8755 62.4295 61.4868 61.682 61.0682 60.9345V60.9495Z" fill="white"/>
</svg>
