<svg width="29" height="29" viewBox="0 0 29 29" fill="none" xmlns="http://www.w3.org/2000/svg">
<g clip-path="url(#clip0_26_29)">
<path fill-rule="evenodd" clip-rule="evenodd" d="M22.211 20.4095C21.8727 21.3672 20.5277 22.1595 19.4552 22.3913C18.7209 22.5471 17.7635 22.6705 14.5373 21.3335C10.9139 19.8323 5.88232 14.4849 5.88232 10.9263C5.88232 9.11477 6.92682 7.00531 8.75328 7.00531C9.63212 7.00531 9.82586 7.02245 10.1151 7.71617C10.4534 8.53349 11.2789 10.5472 11.3772 10.7536C11.7829 11.6004 10.9644 12.0961 10.3706 12.8334C10.181 13.0553 9.96625 13.2952 10.2063 13.7081C10.445 14.1125 11.2705 15.4579 12.4834 16.5378C14.0502 17.9337 15.3207 18.3794 15.7756 18.5689C16.1139 18.7094 16.5182 18.6767 16.7653 18.4126C17.0784 18.0742 17.4673 17.5127 17.8632 16.9594C18.1425 16.5634 18.4977 16.5139 18.8698 16.6543C19.1211 16.7414 22.3149 18.2247 22.4497 18.462C22.5494 18.6347 22.5494 19.4517 22.211 20.4095ZM14.0418 0.584961H14.0347C6.29505 0.584961 0 6.88192 0 14.6239C0 17.6937 0.989755 20.5418 2.67302 22.8519L0.923769 28.0685L6.31894 26.3445C8.5385 27.8134 11.1876 28.6629 14.0418 28.6629C21.7814 28.6629 28.0779 22.3659 28.0779 14.6239C28.0779 6.88192 21.7814 0.584961 14.0418 0.584961Z" fill="#E6E7E8"/>
</g>
<defs>
<clipPath id="clip0_26_29">
<rect width="28.0779" height="28.0779" fill="white" transform="translate(0 0.584961)"/>
</clipPath>
</defs>
</svg>
