<svg width="29" height="30" viewBox="0 0 29 30" fill="none" xmlns="http://www.w3.org/2000/svg">
<path d="M0.294739 16.1155C0.294739 15.2966 0.294739 14.4777 0.294739 13.6587C0.359084 13.2083 0.41758 12.7579 0.499473 12.3075C1.44125 6.94343 5.54764 2.46852 10.8181 1.05293C11.6546 0.830643 12.5086 0.696103 13.3627 0.584961C14.1816 0.584961 15.0005 0.584961 15.8195 0.584961C15.8838 0.59666 15.9482 0.614209 16.0125 0.620058C18.2061 0.842342 20.271 1.48579 22.1136 2.69665C26.957 5.87881 29.2325 10.383 28.8581 16.1799C28.7119 18.4027 27.9983 20.4618 26.8283 22.3512C23.6754 27.4578 17.9253 30.1135 12.0231 28.967C6.24374 27.8439 2.51757 24.3108 0.768553 18.6952C0.511172 17.8529 0.40588 16.9813 0.294739 16.1155ZM14.5794 8.70415C13.7487 8.70415 12.9239 8.69245 12.0933 8.70415C10.783 8.72755 9.4727 8.77435 8.16825 8.92643C7.01003 9.06097 6.25544 9.69858 6.02146 10.7632C5.89862 11.3189 5.83427 11.8805 5.79333 12.4479C5.69973 13.7172 5.67049 14.9924 5.72898 16.2676C5.76993 17.0924 5.82257 17.9231 5.96296 18.7361C6.16185 19.8827 6.78775 20.5671 7.82312 20.7718C8.1039 20.8244 8.39053 20.8654 8.67716 20.8946C10.4788 21.0643 12.2805 21.0818 14.088 21.1111C15.3223 21.1345 16.5624 21.1052 17.8025 21.0584C18.8729 21.0175 19.9376 20.9765 21.0022 20.8478C22.2715 20.6957 22.991 20.0757 23.2075 18.818C23.5467 16.8643 23.5409 14.893 23.4356 12.9217C23.3947 12.208 23.3362 11.4944 23.1782 10.7924C22.9559 9.79217 22.2891 9.14872 21.2888 8.99078C20.8384 8.92058 20.388 8.86209 19.9317 8.82699C18.1476 8.6983 16.3635 8.6983 14.5794 8.70415Z" fill="#E6E7E8"/>
<path d="M12.7894 14.8759C12.7894 14.0745 12.7953 13.2731 12.7894 12.4717C12.7894 12.2319 12.8655 12.1968 13.0644 12.3138C14.4683 13.1269 15.8721 13.9341 17.276 14.7414C17.4691 14.8525 17.4632 14.9344 17.276 15.0455C15.8721 15.8528 14.4683 16.66 13.0644 17.4731C12.8596 17.5901 12.7894 17.5433 12.7894 17.3093C12.7894 16.4962 12.7894 15.6831 12.7894 14.8759Z" fill="#E6E7E8"/>
</svg>
